<?xml version="1.0" encoding="UTF-8" standalone="no"?>
<svg
   width="6"
   height="11"
   viewBox="0 0 6 11"
   version="1.1"
   xmlns="http://www.w3.org/2000/svg"
   xmlns:svg="http://www.w3.org/2000/svg"
   >
    <path
       fill="#667"
       d="M 6,5.5 C 6,5.4 5.91,5.32 5.73,5.24 5.59,5.2 5.44,5.15 5.3,5.11 3.83,4.56 2.7,3.64 1.87,2.38 1.67,2.07 1.36,1.34 0.95,0.2 0.93,0.15 0.9,0.1 0.86,0.07 0.79,0.02 0.69,0 0.54,0 0.18,0 0,0.1 0,0.29 0,0.31 0.03,0.44 0.09,0.66 0.63,2.55 1.73,4.02 3.41,5.08 L 4.03,5.5 3.41,5.92 C 2.23,6.67 1.32,7.65 0.66,8.87 0.22,9.68 0,10.3 0,10.71 0,10.9 0.12,11 0.37,11 h 0.17 c 0.08,-0.01 0.14,-0.01 0.17,-0.01 0.11,0 0.18,-0.07 0.23,-0.19 C 1.05,10.43 1.26,9.86 1.57,9.12 2.38,7.61 3.61,6.56 5.23,5.94 L 5.69,5.79 C 5.88,5.71 5.98,5.61 5.98,5.5 Z"
       style="stroke-width:1.5" />
</svg>
