<?xml version="1.0" encoding="UTF-8" standalone="no"?>
<svg
   width="8"
   height="14"
   viewBox="1 -10.5 4 21"
   version="1.1"
   xmlns="http://www.w3.org/2000/svg"
   xmlns:svg="http://www.w3.org/2000/svg">
  <path
     fill="#557"
     d="m8 0c0 .12-.16.28-.42.37l-.61.19c-2.16.79-3.8 2.13-4.88 4.05-.41.94-.69 1.67-.84 2.14-.07.15-.16.24-.31.24l-.45.01c-.33 0-.49-.13-.49-.37 0-.52.29-1.31.88-2.34.88-1.55 2.1-2.8 3.67-3.75l.57-.36c-.15.02-.16-.1-.17-.17s0-.17.17-.17l-.57-.37c-2.24-1.35-3.71-3.22-4.43-5.63-.08-.28-.12-.44-.12-.47 0-.24.24-.37.72-.37.2 0 .34.03.43.09.05.04.09.11.12.17.55 1.45.96 2.38 1.23 2.77 1.1 1.6 2.61 2.77 4.57 3.47.18.06.38.12.57.17.24.08.36.33.36.33z"
     style="stroke-width:1.5"/>
</svg>